<svg width="553" height="207" viewBox="0 0 553 207" fill="none" xmlns="http://www.w3.org/2000/svg">
<rect width="553" height="207" rx="29" fill="#7D58E6" fill-opacity="0.75"/>
<rect x="17" y="19" width="30" height="30" rx="6" fill="#3D3D3D" fill-opacity="0.7"/>
<rect x="17" y="159" width="37" height="30" rx="6" fill="#3D3D3D" fill-opacity="0.7"/>
<rect x="59" y="159" width="37" height="30" rx="6" fill="#3D3D3D" fill-opacity="0.7"/>
<rect x="101" y="159" width="37.5" height="30" rx="6" fill="#3D3D3D" fill-opacity="0.7"/>
<rect x="144" y="159" width="223" height="30" rx="6" fill="#3D3D3D" fill-opacity="0.7"/>
<rect x="415" y="159" width="37" height="30" rx="6" fill="#3D3D3D" fill-opacity="0.7"/>
<rect x="373" y="159" width="37" height="30" rx="6" fill="#3D3D3D" fill-opacity="0.7"/>
<rect x="457" y="159" width="37" height="30" rx="6" fill="#3D3D3D" fill-opacity="0.7"/>
<rect x="499" y="159" width="38" height="30" rx="6" fill="#3D3D3D" fill-opacity="0.7"/>
<rect x="52" y="19" width="30" height="30" rx="6" fill="#3D3D3D" fill-opacity="0.7"/>
<rect x="87" y="19" width="30" height="30" rx="6" fill="#3D3D3D" fill-opacity="0.7"/>
<rect x="122" y="19" width="30" height="30" rx="6" fill="#3D3D3D" fill-opacity="0.7"/>
<rect x="157" y="19" width="30" height="30" rx="6" fill="#3D3D3D" fill-opacity="0.7"/>
<rect x="192" y="19" width="30" height="30" rx="6" fill="#3D3D3D" fill-opacity="0.7"/>
<rect x="227" y="19" width="30" height="30" rx="6" fill="#3D3D3D" fill-opacity="0.7"/>
<rect x="262" y="19" width="30" height="30" rx="6" fill="#3D3D3D" fill-opacity="0.7"/>
<rect x="297" y="19" width="30" height="30" rx="6" fill="#3D3D3D" fill-opacity="0.7"/>
<rect x="332" y="19" width="30" height="30" rx="6" fill="#3D3D3D" fill-opacity="0.7"/>
<rect x="367" y="19" width="30" height="30" rx="6" fill="#3D3D3D" fill-opacity="0.7"/>
<rect x="402" y="19" width="30" height="30" rx="6" fill="#3D3D3D" fill-opacity="0.7"/>
<rect x="72" y="54" width="30" height="30" rx="6" fill="#3D3D3D" fill-opacity="0.7"/>
<rect x="107" y="54" width="30" height="30" rx="6" fill="#3D3D3D" fill-opacity="0.7"/>
<rect x="142" y="54" width="30" height="30" rx="6" fill="#3D3D3D" fill-opacity="0.7"/>
<rect x="177" y="54" width="30" height="30" rx="6" fill="#3D3D3D" fill-opacity="0.7"/>
<rect x="212" y="54" width="30" height="30" rx="6" fill="#3D3D3D" fill-opacity="0.7"/>
<rect x="247" y="54" width="30" height="30" rx="6" fill="#3D3D3D" fill-opacity="0.7"/>
<rect x="282" y="54" width="30" height="30" rx="6" fill="#3D3D3D" fill-opacity="0.7"/>
<rect x="317" y="54" width="30" height="30" rx="6" fill="#3D3D3D" fill-opacity="0.7"/>
<rect x="352" y="54" width="30" height="30" rx="6" fill="#3D3D3D" fill-opacity="0.7"/>
<rect x="387" y="54" width="30" height="30" rx="6" fill="#3D3D3D" fill-opacity="0.7"/>
<rect x="422" y="54" width="30" height="30" rx="6" fill="#3D3D3D" fill-opacity="0.7"/>
<rect x="84" y="89" width="30" height="30" rx="6" fill="#3D3D3D" fill-opacity="0.7"/>
<rect x="119" y="89" width="30" height="30" rx="6" fill="#3D3D3D" fill-opacity="0.7"/>
<rect x="154" y="89" width="30" height="30" rx="6" fill="#3D3D3D" fill-opacity="0.7"/>
<rect x="189" y="89" width="30" height="30" rx="6" fill="#3D3D3D" fill-opacity="0.7"/>
<rect x="224" y="89" width="30" height="30" rx="6" fill="#3D3D3D" fill-opacity="0.7"/>
<rect x="259" y="89" width="30" height="30" rx="6" fill="#3D3D3D" fill-opacity="0.7"/>
<rect x="294" y="89" width="30" height="30" rx="6" fill="#3D3D3D" fill-opacity="0.7"/>
<rect x="329" y="89" width="30" height="30" rx="6" fill="#3D3D3D" fill-opacity="0.7"/>
<rect x="364" y="89" width="30" height="30" rx="6" fill="#3D3D3D" fill-opacity="0.7"/>
<rect x="399" y="89" width="30" height="30" rx="6" fill="#3D3D3D" fill-opacity="0.7"/>
<rect x="98" y="124" width="30" height="30" rx="6" fill="#3D3D3D" fill-opacity="0.7"/>
<rect x="133" y="124" width="30" height="30" rx="6" fill="#3D3D3D" fill-opacity="0.7"/>
<rect x="168" y="124" width="30" height="30" rx="6" fill="#3D3D3D" fill-opacity="0.7"/>
<rect x="203" y="124" width="30" height="30" rx="6" fill="#3D3D3D" fill-opacity="0.7"/>
<rect x="238" y="124" width="30" height="30" rx="6" fill="#3D3D3D" fill-opacity="0.7"/>
<rect x="273" y="124" width="30" height="30" rx="6" fill="#3D3D3D" fill-opacity="0.7"/>
<rect x="308" y="124" width="30" height="30" rx="6" fill="#3D3D3D" fill-opacity="0.7"/>
<rect x="343" y="124" width="30" height="30" rx="6" fill="#3D3D3D" fill-opacity="0.7"/>
<rect x="378" y="124" width="30" height="30" rx="6" fill="#3D3D3D" fill-opacity="0.7"/>
<rect x="413" y="124" width="30" height="30" rx="6" fill="#3D3D3D" fill-opacity="0.7"/>
<rect x="434" y="89" width="30" height="30" rx="6" fill="#3D3D3D" fill-opacity="0.7"/>
<rect x="457" y="54" width="30" height="30" rx="6" fill="#3D3D3D" fill-opacity="0.7"/>
<rect x="492" y="54" width="45" height="30" rx="6" fill="#3D3D3D" fill-opacity="0.7"/>
<rect x="437" y="19" width="30" height="30" rx="6" fill="#3D3D3D" fill-opacity="0.7"/>
<rect x="472" y="19" width="65" height="30" rx="6" fill="#3D3D3D" fill-opacity="0.7"/>
<rect x="469" y="89" width="68" height="30" rx="6" fill="#3D3D3D" fill-opacity="0.7"/>
<rect x="448" y="124" width="89" height="30" rx="6" fill="#3D3D3D" fill-opacity="0.7"/>
<rect x="17" y="124" width="76" height="30" rx="6" fill="#3D3D3D" fill-opacity="0.7"/>
<rect x="17" y="89" width="61" height="30" rx="6" fill="#3D3D3D" fill-opacity="0.7"/>
<rect x="17" y="54" width="50" height="30" rx="6" fill="#3D3D3D" fill-opacity="0.7"/>
</svg>
