<svg width="850" height="241" viewBox="0 0 850 241" fill="none" xmlns="http://www.w3.org/2000/svg">
<rect width="850" height="240.217" rx="29" fill="#7CE0FF"/>
<rect x="25" y="11" width="30" height="30" rx="6" fill="#F0F0F3"/>
<rect x="95" y="11" width="30" height="30" rx="6" fill="#F0F0F3"/>
<rect x="130" y="11" width="30" height="30" rx="6" fill="#F0F0F3"/>
<rect x="165" y="11" width="30" height="30" rx="6" fill="#F0F0F3"/>
<rect x="200" y="11" width="30" height="30" rx="6" fill="#F0F0F3"/>
<rect x="252" y="11" width="30" height="30" rx="6" fill="#F0F0F3"/>
<rect x="287" y="11" width="30" height="30" rx="6" fill="#F0F0F3"/>
<rect x="322" y="11" width="30" height="30" rx="6" fill="#F0F0F3"/>
<rect x="357" y="11" width="30" height="30" rx="6" fill="#F0F0F3"/>
<rect x="410" y="11" width="30" height="30" rx="6" fill="#F0F0F3"/>
<rect x="445" y="11" width="30" height="30" rx="6" fill="#F0F0F3"/>
<rect x="480" y="11" width="30" height="30" rx="6" fill="#F0F0F3"/>
<rect x="515" y="11" width="30" height="30" rx="6" fill="#F0F0F3"/>
<rect x="690" y="11" width="30" height="30" rx="6" fill="#F0F0F3"/>
<rect x="725" y="11" width="30" height="30" rx="6" fill="#F0F0F3"/>
<rect x="760" y="11" width="30" height="30" rx="6" fill="#F0F0F3"/>
<rect x="795" y="11" width="30" height="30" rx="6" fill="#F0F0F3"/>
<rect x="25" y="57" width="30" height="30" rx="6" fill="#F0F0F3"/>
<rect x="25" y="197" width="37" height="30" rx="6" fill="#F0F0F3"/>
<rect x="67" y="197" width="37" height="30" rx="6" fill="#F0F0F3"/>
<rect x="109" y="197" width="37.5" height="30" rx="6" fill="#F0F0F3"/>
<rect x="152" y="197" width="223" height="30" rx="6" fill="#F0F0F3"/>
<rect x="423" y="197" width="37" height="30" rx="6" fill="#F0F0F3"/>
<rect x="381" y="197" width="37" height="30" rx="6" fill="#F0F0F3"/>
<rect x="465" y="197" width="37" height="30" rx="6" fill="#F0F0F3"/>
<rect x="507" y="197" width="38" height="30" rx="6" fill="#F0F0F3"/>
<rect x="60" y="57" width="30" height="30" rx="6" fill="#F0F0F3"/>
<rect x="95" y="57" width="30" height="30" rx="6" fill="#F0F0F3"/>
<rect x="130" y="57" width="30" height="30" rx="6" fill="#F0F0F3"/>
<rect x="165" y="57" width="30" height="30" rx="6" fill="#F0F0F3"/>
<rect x="200" y="57" width="30" height="30" rx="6" fill="#F0F0F3"/>
<rect x="235" y="57" width="30" height="30" rx="6" fill="#F0F0F3"/>
<rect x="270" y="57" width="30" height="30" rx="6" fill="#F0F0F3"/>
<rect x="305" y="57" width="30" height="30" rx="6" fill="#F0F0F3"/>
<rect x="340" y="57" width="30" height="30" rx="6" fill="#F0F0F3"/>
<rect x="375" y="57" width="30" height="30" rx="6" fill="#F0F0F3"/>
<rect x="410" y="57" width="30" height="30" rx="6" fill="#F0F0F3"/>
<rect x="80" y="92" width="30" height="30" rx="6" fill="#F0F0F3"/>
<rect x="115" y="92" width="30" height="30" rx="6" fill="#F0F0F3"/>
<rect x="150" y="92" width="30" height="30" rx="6" fill="#F0F0F3"/>
<rect x="185" y="92" width="30" height="30" rx="6" fill="#F0F0F3"/>
<rect x="220" y="92" width="30" height="30" rx="6" fill="#F0F0F3"/>
<rect x="255" y="92" width="30" height="30" rx="6" fill="#F0F0F3"/>
<rect x="290" y="92" width="30" height="30" rx="6" fill="#F0F0F3"/>
<rect x="325" y="92" width="30" height="30" rx="6" fill="#F0F0F3"/>
<rect x="360" y="92" width="30" height="30" rx="6" fill="#F0F0F3"/>
<rect x="395" y="92" width="30" height="30" rx="6" fill="#F0F0F3"/>
<rect x="430" y="92" width="30" height="30" rx="6" fill="#F0F0F3"/>
<rect x="92" y="127" width="30" height="30" rx="6" fill="#F0F0F3"/>
<rect x="127" y="127" width="30" height="30" rx="6" fill="#F0F0F3"/>
<rect x="162" y="127" width="30" height="30" rx="6" fill="#F0F0F3"/>
<rect x="197" y="127" width="30" height="30" rx="6" fill="#F0F0F3"/>
<rect x="232" y="127" width="30" height="30" rx="6" fill="#F0F0F3"/>
<rect x="267" y="127" width="30" height="30" rx="6" fill="#F0F0F3"/>
<rect x="302" y="127" width="30" height="30" rx="6" fill="#F0F0F3"/>
<rect x="337" y="127" width="30" height="30" rx="6" fill="#F0F0F3"/>
<rect x="372" y="127" width="30" height="30" rx="6" fill="#F0F0F3"/>
<rect x="407" y="127" width="30" height="30" rx="6" fill="#F0F0F3"/>
<rect x="106" y="162" width="30" height="30" rx="6" fill="#F0F0F3"/>
<rect x="141" y="162" width="30" height="30" rx="6" fill="#F0F0F3"/>
<rect x="176" y="162" width="30" height="30" rx="6" fill="#F0F0F3"/>
<rect x="211" y="162" width="30" height="30" rx="6" fill="#F0F0F3"/>
<rect x="246" y="162" width="30" height="30" rx="6" fill="#F0F0F3"/>
<rect x="281" y="162" width="30" height="30" rx="6" fill="#F0F0F3"/>
<rect x="316" y="162" width="30" height="30" rx="6" fill="#F0F0F3"/>
<rect x="351" y="162" width="30" height="30" rx="6" fill="#F0F0F3"/>
<rect x="386" y="162" width="30" height="30" rx="6" fill="#F0F0F3"/>
<rect x="421" y="162" width="30" height="30" rx="6" fill="#F0F0F3"/>
<rect x="442" y="127" width="30" height="30" rx="6" fill="#F0F0F3"/>
<rect x="465" y="92" width="30" height="30" rx="6" fill="#F0F0F3"/>
<rect x="500" y="92" width="45" height="30" rx="6" fill="#F0F0F3"/>
<rect x="445" y="57" width="30" height="30" rx="6" fill="#F0F0F3"/>
<rect x="480" y="57" width="65" height="30" rx="6" fill="#F0F0F3"/>
<rect x="477" y="127" width="68" height="30" rx="6" fill="#F0F0F3"/>
<rect x="456" y="162" width="89" height="30" rx="6" fill="#F0F0F3"/>
<rect x="25" y="162" width="76" height="30" rx="6" fill="#F0F0F3"/>
<rect x="25" y="127" width="61" height="30" rx="6" fill="#F0F0F3"/>
<rect x="568" y="57" width="30" height="30" rx="6" fill="#F0F0F3"/>
<rect x="603" y="57" width="30" height="30" rx="6" fill="#F0F0F3"/>
<rect x="638" y="57" width="30" height="30" rx="6" fill="#F0F0F3"/>
<rect x="568" y="11" width="30" height="30" rx="6" fill="#F0F0F3"/>
<rect x="603" y="11" width="30" height="30" rx="6" fill="#F0F0F3"/>
<rect x="638" y="11" width="30" height="30" rx="6" fill="#F0F0F3"/>
<rect x="690" y="57" width="30" height="30" rx="6" fill="#F0F0F3"/>
<rect x="725" y="57" width="30" height="30" rx="6" fill="#F0F0F3"/>
<rect x="760" y="57" width="30" height="30" rx="6" fill="#F0F0F3"/>
<rect x="795" y="57" width="30" height="30" rx="6" fill="#F0F0F3"/>
<rect x="25" y="92" width="50" height="30" rx="6" fill="#F0F0F3"/>
<rect x="568" y="92" width="30" height="30" rx="6" fill="#F0F0F3"/>
<rect x="603" y="92" width="30" height="30" rx="6" fill="#F0F0F3"/>
<rect x="638" y="92" width="30" height="30" rx="6" fill="#F0F0F3"/>
<rect x="690" y="92" width="30" height="30" rx="6" fill="#F0F0F3"/>
<rect x="725" y="92" width="30" height="30" rx="6" fill="#F0F0F3"/>
<rect x="760" y="92" width="30" height="30" rx="6" fill="#F0F0F3"/>
<rect x="690" y="127" width="30" height="30" rx="6" fill="#F0F0F3"/>
<rect x="725" y="127" width="30" height="30" rx="6" fill="#F0F0F3"/>
<rect x="760" y="127" width="30" height="30" rx="6" fill="#F0F0F3"/>
<rect x="795" y="92" width="30" height="65" rx="6" fill="#F0F0F3"/>
<rect x="603" y="162" width="30" height="30" rx="6" fill="#F0F0F3"/>
<rect x="690" y="162" width="30" height="30" rx="6" fill="#F0F0F3"/>
<rect x="725" y="162" width="30" height="30" rx="6" fill="#F0F0F3"/>
<rect x="760" y="162" width="30" height="30" rx="6" fill="#F0F0F3"/>
<rect x="568" y="197" width="30" height="30" rx="6" fill="#F0F0F3"/>
<rect x="603" y="197" width="30" height="30" rx="6" fill="#F0F0F3"/>
<rect x="638" y="197" width="30" height="30" rx="6" fill="#F0F0F3"/>
<rect x="690" y="197" width="65" height="30" rx="6" fill="#F0F0F3"/>
<rect x="760" y="197" width="30" height="30" rx="6" fill="#F0F0F3"/>
<rect x="795" y="162" width="30" height="65" rx="6" fill="#F0F0F3"/>
</svg>
